<mxfile host="app.diagrams.net" modified="2023-11-28T11:30:41.389Z" agent="Mozilla/5.0 (Macintosh; Intel Mac OS X 10_15_7) AppleWebKit/537.36 (KHTML, like Gecko) Chrome/119.0.0.0 Safari/537.36" etag="j6CkDWpibJjaArajE525" version="22.1.4" type="github">
  <diagram name="Page-1" id="hwL8e8LELadIlyGQyHQZ">
    <mxGraphModel dx="1674" dy="1964" grid="1" gridSize="10" guides="1" tooltips="1" connect="1" arrows="1" fold="1" page="1" pageScale="1" pageWidth="827" pageHeight="1169" math="0" shadow="0">
      <root>
        <mxCell id="0" />
        <mxCell id="1" parent="0" />
        <mxCell id="xkGvFycIygTigsBlXQcr-1" value="" style="endArrow=none;html=1;rounded=0;" parent="1" edge="1">
          <mxGeometry width="50" height="50" relative="1" as="geometry">
            <mxPoint x="100" y="-100" as="sourcePoint" />
            <mxPoint x="100" y="-1100" as="targetPoint" />
          </mxGeometry>
        </mxCell>
        <mxCell id="xkGvFycIygTigsBlXQcr-2" value="" style="endArrow=none;html=1;rounded=0;" parent="1" edge="1">
          <mxGeometry width="50" height="50" relative="1" as="geometry">
            <mxPoint x="700" y="-100" as="sourcePoint" />
            <mxPoint x="699" y="-1100" as="targetPoint" />
          </mxGeometry>
        </mxCell>
        <mxCell id="xkGvFycIygTigsBlXQcr-5" value="Semi-autonomous &lt;br&gt;UAV" style="shape=umlActor;verticalLabelPosition=bottom;verticalAlign=top;html=1;" parent="1" vertex="1">
          <mxGeometry x="760" y="-560" width="30" height="60" as="geometry" />
        </mxCell>
        <mxCell id="xkGvFycIygTigsBlXQcr-6" value="Emergency &lt;br&gt;responders" style="shape=umlActor;verticalLabelPosition=bottom;verticalAlign=top;html=1;" parent="1" vertex="1">
          <mxGeometry x="730" y="-280" width="30" height="60" as="geometry" />
        </mxCell>
        <mxCell id="xkGvFycIygTigsBlXQcr-7" value="DroneResponse" style="shape=umlActor;verticalLabelPosition=bottom;verticalAlign=top;html=1;" parent="1" vertex="1">
          <mxGeometry x="740" y="-400" width="30" height="60" as="geometry" />
        </mxCell>
        <mxCell id="xkGvFycIygTigsBlXQcr-8" value="RPIC" style="shape=umlActor;verticalLabelPosition=bottom;verticalAlign=top;html=1;" parent="1" vertex="1">
          <mxGeometry x="740" y="-890" width="30" height="60" as="geometry" />
        </mxCell>
        <mxCell id="xkGvFycIygTigsBlXQcr-9" value="Technicians" style="shape=umlActor;verticalLabelPosition=bottom;verticalAlign=top;html=1;" parent="1" vertex="1">
          <mxGeometry x="750" y="-130" width="30" height="60" as="geometry" />
        </mxCell>
        <mxCell id="xkGvFycIygTigsBlXQcr-12" value="ActivateAndArm" style="ellipse;whiteSpace=wrap;html=1;align=center;fillColor=#66B2FF;" parent="1" vertex="1">
          <mxGeometry x="100" y="-540" width="100" height="40" as="geometry" />
        </mxCell>
        <mxCell id="xkGvFycIygTigsBlXQcr-13" value="AreaCoverage" style="ellipse;whiteSpace=wrap;html=1;align=center;fillColor=#3399FF;" parent="1" vertex="1">
          <mxGeometry x="359" y="-150" width="100" height="40" as="geometry" />
        </mxCell>
        <mxCell id="xkGvFycIygTigsBlXQcr-14" value="LeaseAirspace" style="ellipse;whiteSpace=wrap;html=1;align=center;fillColor=#3399FF;" parent="1" vertex="1">
          <mxGeometry x="560" y="-420" width="100" height="40" as="geometry" />
        </mxCell>
        <mxCell id="xkGvFycIygTigsBlXQcr-23" value="" style="endArrow=none;html=1;rounded=0;exitX=1;exitY=0.3333333333333333;exitDx=0;exitDy=0;exitPerimeter=0;entryX=0;entryY=0.5;entryDx=0;entryDy=0;" parent="1" source="xkGvFycIygTigsBlXQcr-3" target="xkGvFycIygTigsBlXQcr-12" edge="1">
          <mxGeometry width="50" height="50" relative="1" as="geometry">
            <mxPoint x="170" y="-530" as="sourcePoint" />
            <mxPoint x="150" y="-750" as="targetPoint" />
          </mxGeometry>
        </mxCell>
        <mxCell id="xkGvFycIygTigsBlXQcr-24" value="" style="endArrow=open;endSize=12;dashed=1;html=1;rounded=0;exitX=1;exitY=0;exitDx=0;exitDy=0;entryX=0.3;entryY=0.933;entryDx=0;entryDy=0;entryPerimeter=0;" parent="1" source="xkGvFycIygTigsBlXQcr-12" target="xkGvFycIygTigsBlXQcr-25" edge="1">
          <mxGeometry x="-0.1854" y="26" width="160" relative="1" as="geometry">
            <mxPoint x="330" y="-500" as="sourcePoint" />
            <mxPoint x="380" y="-580" as="targetPoint" />
            <mxPoint as="offset" />
          </mxGeometry>
        </mxCell>
        <mxCell id="xkGvFycIygTigsBlXQcr-27" value="&amp;lt;&amp;lt; include &amp;gt;&amp;gt;" style="edgeLabel;html=1;align=center;verticalAlign=middle;resizable=0;points=[];rotation=-45;" parent="xkGvFycIygTigsBlXQcr-24" vertex="1" connectable="0">
          <mxGeometry x="0.0286" y="-2" relative="1" as="geometry">
            <mxPoint x="-11" y="-8" as="offset" />
          </mxGeometry>
        </mxCell>
        <mxCell id="xkGvFycIygTigsBlXQcr-25" value="Deactivate the safety switch" style="ellipse;whiteSpace=wrap;html=1;align=center;" parent="1" vertex="1">
          <mxGeometry x="280" y="-680" width="110" height="40" as="geometry" />
        </mxCell>
        <mxCell id="xkGvFycIygTigsBlXQcr-26" value="" style="endArrow=none;html=1;rounded=0;exitX=1;exitY=0.5;exitDx=0;exitDy=0;entryX=0.5;entryY=0.5;entryDx=0;entryDy=0;entryPerimeter=0;" parent="1" source="xkGvFycIygTigsBlXQcr-25" target="xkGvFycIygTigsBlXQcr-8" edge="1">
          <mxGeometry width="50" height="50" relative="1" as="geometry">
            <mxPoint x="480" y="-610" as="sourcePoint" />
            <mxPoint x="680" y="-660" as="targetPoint" />
          </mxGeometry>
        </mxCell>
        <mxCell id="xkGvFycIygTigsBlXQcr-28" value="" style="endArrow=open;endSize=12;dashed=1;html=1;rounded=0;entryX=0;entryY=0.5;entryDx=0;entryDy=0;" parent="1" source="xkGvFycIygTigsBlXQcr-25" target="xkGvFycIygTigsBlXQcr-32" edge="1">
          <mxGeometry x="-0.1854" y="26" width="160" relative="1" as="geometry">
            <mxPoint x="379.17" y="-590" as="sourcePoint" />
            <mxPoint x="464.002218479657" y="-749.7832372577341" as="targetPoint" />
            <mxPoint as="offset" />
          </mxGeometry>
        </mxCell>
        <mxCell id="xkGvFycIygTigsBlXQcr-31" value="" style="endArrow=none;html=1;rounded=0;exitX=1;exitY=0.5;exitDx=0;exitDy=0;entryX=0;entryY=0.3333333333333333;entryDx=0;entryDy=0;entryPerimeter=0;" parent="1" source="xkGvFycIygTigsBlXQcr-32" target="xkGvFycIygTigsBlXQcr-7" edge="1">
          <mxGeometry width="50" height="50" relative="1" as="geometry">
            <mxPoint x="485" y="-410" as="sourcePoint" />
            <mxPoint x="700" y="-420" as="targetPoint" />
          </mxGeometry>
        </mxCell>
        <mxCell id="xkGvFycIygTigsBlXQcr-32" value="Issue an arming command" style="ellipse;whiteSpace=wrap;html=1;align=center;" parent="1" vertex="1">
          <mxGeometry x="390" y="-720" width="100" height="40" as="geometry" />
        </mxCell>
        <mxCell id="xkGvFycIygTigsBlXQcr-33" value="Execute and pass pre-arming tests." style="ellipse;whiteSpace=wrap;html=1;align=center;" parent="1" vertex="1">
          <mxGeometry x="390" y="-650" width="100" height="40" as="geometry" />
        </mxCell>
        <mxCell id="xkGvFycIygTigsBlXQcr-34" value="" style="endArrow=open;endSize=12;dashed=1;html=1;rounded=0;entryX=0.5;entryY=0;entryDx=0;entryDy=0;" parent="1" source="xkGvFycIygTigsBlXQcr-32" target="xkGvFycIygTigsBlXQcr-33" edge="1">
          <mxGeometry x="-0.1854" y="26" width="160" relative="1" as="geometry">
            <mxPoint x="315" y="-430" as="sourcePoint" />
            <mxPoint x="420" y="-510" as="targetPoint" />
            <mxPoint as="offset" />
          </mxGeometry>
        </mxCell>
        <mxCell id="xkGvFycIygTigsBlXQcr-37" value="" style="endArrow=none;html=1;rounded=0;exitX=1;exitY=0.5;exitDx=0;exitDy=0;entryX=0;entryY=0.3333333333333333;entryDx=0;entryDy=0;entryPerimeter=0;" parent="1" source="xkGvFycIygTigsBlXQcr-33" target="xkGvFycIygTigsBlXQcr-5" edge="1">
          <mxGeometry width="50" height="50" relative="1" as="geometry">
            <mxPoint x="540" y="-510" as="sourcePoint" />
            <mxPoint x="740" y="-560" as="targetPoint" />
          </mxGeometry>
        </mxCell>
        <mxCell id="xkGvFycIygTigsBlXQcr-38" value="" style="endArrow=none;html=1;rounded=0;exitX=1;exitY=0.5;exitDx=0;exitDy=0;entryX=0.5;entryY=0.5;entryDx=0;entryDy=0;entryPerimeter=0;" parent="1" source="xkGvFycIygTigsBlXQcr-79" target="xkGvFycIygTigsBlXQcr-5" edge="1">
          <mxGeometry width="50" height="50" relative="1" as="geometry">
            <mxPoint x="590.0000000000002" y="-430" as="sourcePoint" />
            <mxPoint x="830" y="-420" as="targetPoint" />
          </mxGeometry>
        </mxCell>
        <mxCell id="xkGvFycIygTigsBlXQcr-41" style="edgeStyle=orthogonalEdgeStyle;rounded=0;orthogonalLoop=1;jettySize=auto;html=1;entryX=0.5;entryY=0;entryDx=0;entryDy=0;entryPerimeter=0;" parent="1" source="xkGvFycIygTigsBlXQcr-5" target="xkGvFycIygTigsBlXQcr-7" edge="1">
          <mxGeometry relative="1" as="geometry" />
        </mxCell>
        <mxCell id="xkGvFycIygTigsBlXQcr-42" value="" style="endArrow=none;html=1;rounded=0;exitX=1;exitY=0.5;exitDx=0;exitDy=0;entryX=0;entryY=0.3333333333333333;entryDx=0;entryDy=0;entryPerimeter=0;" parent="1" source="xkGvFycIygTigsBlXQcr-13" target="xkGvFycIygTigsBlXQcr-6" edge="1">
          <mxGeometry width="50" height="50" relative="1" as="geometry">
            <mxPoint x="410" y="-270" as="sourcePoint" />
            <mxPoint x="610" y="-320" as="targetPoint" />
          </mxGeometry>
        </mxCell>
        <mxCell id="xkGvFycIygTigsBlXQcr-43" value="Select a feature on the map" style="ellipse;whiteSpace=wrap;html=1;align=center;" parent="1" vertex="1">
          <mxGeometry x="490" y="-510" width="100" height="40" as="geometry" />
        </mxCell>
        <mxCell id="xkGvFycIygTigsBlXQcr-45" value="Mark a polygon on the map" style="ellipse;whiteSpace=wrap;html=1;align=center;" parent="1" vertex="1">
          <mxGeometry x="440" y="-440" width="100" height="40" as="geometry" />
        </mxCell>
        <mxCell id="xkGvFycIygTigsBlXQcr-48" value="Specify the # of UAVs for mission." style="ellipse;whiteSpace=wrap;html=1;align=center;" parent="1" vertex="1">
          <mxGeometry x="430" y="-305" width="110" height="40" as="geometry" />
        </mxCell>
        <mxCell id="xkGvFycIygTigsBlXQcr-49" value="Analyze the polygon&amp;nbsp;" style="ellipse;whiteSpace=wrap;html=1;align=center;" parent="1" vertex="1">
          <mxGeometry x="390" y="-380" width="120" height="40" as="geometry" />
        </mxCell>
        <mxCell id="xkGvFycIygTigsBlXQcr-50" value="" style="endArrow=none;html=1;rounded=0;entryX=0.5;entryY=0.5;entryDx=0;entryDy=0;entryPerimeter=0;" parent="1" source="xkGvFycIygTigsBlXQcr-49" target="xkGvFycIygTigsBlXQcr-7" edge="1">
          <mxGeometry width="50" height="50" relative="1" as="geometry">
            <mxPoint x="470.0000000000002" y="-354" as="sourcePoint" />
            <mxPoint x="735" y="-374" as="targetPoint" />
          </mxGeometry>
        </mxCell>
        <mxCell id="xkGvFycIygTigsBlXQcr-52" value="" style="endArrow=none;html=1;rounded=0;entryX=0;entryY=0.5;entryDx=0;entryDy=0;" parent="1" target="xkGvFycIygTigsBlXQcr-43" edge="1" source="xkGvFycIygTigsBlXQcr-3">
          <mxGeometry width="50" height="50" relative="1" as="geometry">
            <mxPoint x="20" y="-470" as="sourcePoint" />
            <mxPoint x="230" y="-460" as="targetPoint" />
          </mxGeometry>
        </mxCell>
        <mxCell id="xkGvFycIygTigsBlXQcr-53" value="" style="endArrow=none;html=1;rounded=0;entryX=0;entryY=0.5;entryDx=0;entryDy=0;" parent="1" source="xkGvFycIygTigsBlXQcr-3" target="xkGvFycIygTigsBlXQcr-45" edge="1">
          <mxGeometry width="50" height="50" relative="1" as="geometry">
            <mxPoint x="30" y="-450" as="sourcePoint" />
            <mxPoint x="490" y="-400" as="targetPoint" />
          </mxGeometry>
        </mxCell>
        <mxCell id="xkGvFycIygTigsBlXQcr-54" value="" style="endArrow=none;html=1;rounded=0;entryX=0;entryY=0.5;entryDx=0;entryDy=0;" parent="1" source="xkGvFycIygTigsBlXQcr-3" target="xkGvFycIygTigsBlXQcr-48" edge="1">
          <mxGeometry width="50" height="50" relative="1" as="geometry">
            <mxPoint x="-70" y="-388.5" as="sourcePoint" />
            <mxPoint x="340" y="-311.5" as="targetPoint" />
          </mxGeometry>
        </mxCell>
        <mxCell id="xkGvFycIygTigsBlXQcr-55" value="Generate set of N flight routes" style="ellipse;whiteSpace=wrap;html=1;align=center;" parent="1" vertex="1">
          <mxGeometry x="299" y="-265" width="110" height="40" as="geometry" />
        </mxCell>
        <mxCell id="xkGvFycIygTigsBlXQcr-56" value="" style="endArrow=open;endSize=12;dashed=1;html=1;rounded=0;exitX=0.5;exitY=0;exitDx=0;exitDy=0;entryX=1;entryY=1;entryDx=0;entryDy=0;" parent="1" source="xkGvFycIygTigsBlXQcr-13" target="xkGvFycIygTigsBlXQcr-43" edge="1">
          <mxGeometry x="-0.1854" y="26" width="160" relative="1" as="geometry">
            <mxPoint x="500" y="-310" as="sourcePoint" />
            <mxPoint x="600" y="-290" as="targetPoint" />
            <mxPoint as="offset" />
            <Array as="points" />
          </mxGeometry>
        </mxCell>
        <mxCell id="xkGvFycIygTigsBlXQcr-61" value="" style="endArrow=none;html=1;rounded=0;entryX=0.5;entryY=0.5;entryDx=0;entryDy=0;entryPerimeter=0;exitX=1;exitY=0.5;exitDx=0;exitDy=0;" parent="1" source="xkGvFycIygTigsBlXQcr-55" target="xkGvFycIygTigsBlXQcr-7" edge="1">
          <mxGeometry width="50" height="50" relative="1" as="geometry">
            <mxPoint x="494" y="-290" as="sourcePoint" />
            <mxPoint x="760" y="-306" as="targetPoint" />
          </mxGeometry>
        </mxCell>
        <mxCell id="xkGvFycIygTigsBlXQcr-62" value="Assign the flight routes to N available UAVs" style="ellipse;whiteSpace=wrap;html=1;align=center;" parent="1" vertex="1">
          <mxGeometry x="425" y="-220" width="120" height="45" as="geometry" />
        </mxCell>
        <mxCell id="xkGvFycIygTigsBlXQcr-63" value="" style="endArrow=none;html=1;rounded=0;entryX=0.5;entryY=0.5;entryDx=0;entryDy=0;entryPerimeter=0;exitX=1;exitY=0.5;exitDx=0;exitDy=0;" parent="1" source="xkGvFycIygTigsBlXQcr-62" target="xkGvFycIygTigsBlXQcr-7" edge="1">
          <mxGeometry width="50" height="50" relative="1" as="geometry">
            <mxPoint x="460" y="-260" as="sourcePoint" />
            <mxPoint x="785" y="-360" as="targetPoint" />
          </mxGeometry>
        </mxCell>
        <mxCell id="xkGvFycIygTigsBlXQcr-70" value="" style="endArrow=open;endSize=12;dashed=1;html=1;rounded=0;entryX=0;entryY=0;entryDx=0;entryDy=0;" parent="1" source="xkGvFycIygTigsBlXQcr-12" target="xkGvFycIygTigsBlXQcr-13" edge="1">
          <mxGeometry x="-0.1854" y="26" width="160" relative="1" as="geometry">
            <mxPoint x="336" y="-501" as="sourcePoint" />
            <mxPoint x="371" y="-450" as="targetPoint" />
            <mxPoint as="offset" />
            <Array as="points" />
          </mxGeometry>
        </mxCell>
        <mxCell id="xkGvFycIygTigsBlXQcr-179" value="&amp;lt;&amp;lt; include &amp;gt;&amp;gt;" style="edgeLabel;html=1;align=center;verticalAlign=middle;resizable=0;points=[];" parent="xkGvFycIygTigsBlXQcr-70" vertex="1" connectable="0">
          <mxGeometry x="0.7003" y="-1" relative="1" as="geometry">
            <mxPoint as="offset" />
          </mxGeometry>
        </mxCell>
        <mxCell id="xkGvFycIygTigsBlXQcr-71" value="Start the flight" style="ellipse;whiteSpace=wrap;html=1;align=center;fillColor=#3399FF;" parent="1" vertex="1">
          <mxGeometry x="570" y="-150" width="100" height="40" as="geometry" />
        </mxCell>
        <mxCell id="xkGvFycIygTigsBlXQcr-74" value="" style="endArrow=open;endSize=12;dashed=1;html=1;rounded=0;exitX=1;exitY=0.5;exitDx=0;exitDy=0;entryX=0;entryY=0.5;entryDx=0;entryDy=0;" parent="1" source="xkGvFycIygTigsBlXQcr-13" target="xkGvFycIygTigsBlXQcr-71" edge="1">
          <mxGeometry x="-0.1854" y="26" width="160" relative="1" as="geometry">
            <mxPoint x="510" y="21" as="sourcePoint" />
            <mxPoint x="410" y="-170" as="targetPoint" />
            <mxPoint as="offset" />
            <Array as="points" />
          </mxGeometry>
        </mxCell>
        <mxCell id="xkGvFycIygTigsBlXQcr-180" value="&amp;lt;&amp;lt; include &amp;gt;&amp;gt;" style="edgeLabel;html=1;align=center;verticalAlign=middle;resizable=0;points=[];" parent="xkGvFycIygTigsBlXQcr-74" vertex="1" connectable="0">
          <mxGeometry x="-0.0453" y="-1" relative="1" as="geometry">
            <mxPoint as="offset" />
          </mxGeometry>
        </mxCell>
        <mxCell id="xkGvFycIygTigsBlXQcr-75" value="" style="endArrow=none;html=1;rounded=0;entryX=0.5;entryY=0.5;entryDx=0;entryDy=0;entryPerimeter=0;exitX=0.637;exitY=0.049;exitDx=0;exitDy=0;exitPerimeter=0;" parent="1" source="xkGvFycIygTigsBlXQcr-71" target="xkGvFycIygTigsBlXQcr-7" edge="1">
          <mxGeometry width="50" height="50" relative="1" as="geometry">
            <mxPoint x="520" y="-262" as="sourcePoint" />
            <mxPoint x="786" y="-278" as="targetPoint" />
          </mxGeometry>
        </mxCell>
        <mxCell id="xkGvFycIygTigsBlXQcr-78" value="" style="endArrow=open;endSize=12;dashed=1;html=1;rounded=0;entryX=0.569;entryY=1.075;entryDx=0;entryDy=0;entryPerimeter=0;" parent="1" source="xkGvFycIygTigsBlXQcr-71" target="xkGvFycIygTigsBlXQcr-14" edge="1">
          <mxGeometry x="-0.1854" y="26" width="160" relative="1" as="geometry">
            <mxPoint x="580" y="-249" as="sourcePoint" />
            <mxPoint x="615" y="-440" as="targetPoint" />
            <mxPoint as="offset" />
            <Array as="points" />
          </mxGeometry>
        </mxCell>
        <mxCell id="xkGvFycIygTigsBlXQcr-181" value="&amp;lt;&amp;lt; include &amp;gt;&amp;gt;" style="edgeLabel;html=1;align=center;verticalAlign=middle;resizable=0;points=[];" parent="xkGvFycIygTigsBlXQcr-78" vertex="1" connectable="0">
          <mxGeometry x="0.2123" y="1" relative="1" as="geometry">
            <mxPoint as="offset" />
          </mxGeometry>
        </mxCell>
        <mxCell id="xkGvFycIygTigsBlXQcr-79" value="Calculate the airspace" style="ellipse;whiteSpace=wrap;html=1;align=center;" parent="1" vertex="1">
          <mxGeometry x="600" y="-480" width="80" height="35" as="geometry" />
        </mxCell>
        <mxCell id="xkGvFycIygTigsBlXQcr-80" value="Request permission" style="ellipse;whiteSpace=wrap;html=1;align=center;" parent="1" vertex="1">
          <mxGeometry x="580" y="-542.5" width="80" height="30" as="geometry" />
        </mxCell>
        <mxCell id="xkGvFycIygTigsBlXQcr-81" value="" style="endArrow=open;endSize=12;dashed=1;html=1;rounded=0;exitX=1;exitY=0;exitDx=0;exitDy=0;entryX=0;entryY=0.5;entryDx=0;entryDy=0;" parent="1" source="xkGvFycIygTigsBlXQcr-14" target="xkGvFycIygTigsBlXQcr-79" edge="1">
          <mxGeometry x="-0.1854" y="26" width="160" relative="1" as="geometry">
            <mxPoint x="580" y="-480" as="sourcePoint" />
            <mxPoint x="610" y="-440" as="targetPoint" />
            <mxPoint as="offset" />
            <Array as="points" />
          </mxGeometry>
        </mxCell>
        <mxCell id="xkGvFycIygTigsBlXQcr-182" value="&amp;lt;&amp;lt; include &amp;gt;&amp;gt;" style="edgeLabel;html=1;align=center;verticalAlign=middle;resizable=0;points=[];" parent="xkGvFycIygTigsBlXQcr-81" vertex="1" connectable="0">
          <mxGeometry x="-0.2218" relative="1" as="geometry">
            <mxPoint as="offset" />
          </mxGeometry>
        </mxCell>
        <mxCell id="xkGvFycIygTigsBlXQcr-84" value="ATC" style="shape=umlActor;verticalLabelPosition=bottom;verticalAlign=top;html=1;" parent="1" vertex="1">
          <mxGeometry x="760" y="-740" width="30" height="60" as="geometry" />
        </mxCell>
        <mxCell id="xkGvFycIygTigsBlXQcr-86" value="Reserve the airplace" style="ellipse;whiteSpace=wrap;html=1;align=center;" parent="1" vertex="1">
          <mxGeometry x="495" y="-600" width="90" height="40" as="geometry" />
        </mxCell>
        <mxCell id="xkGvFycIygTigsBlXQcr-87" value="Grants an exclusive lease" style="ellipse;whiteSpace=wrap;html=1;align=center;" parent="1" vertex="1">
          <mxGeometry x="570" y="-670" width="100" height="40" as="geometry" />
        </mxCell>
        <mxCell id="xkGvFycIygTigsBlXQcr-88" value="" style="endArrow=none;html=1;rounded=0;exitX=0.5;exitY=0;exitDx=0;exitDy=0;entryX=0;entryY=0.3333333333333333;entryDx=0;entryDy=0;entryPerimeter=0;" parent="1" source="xkGvFycIygTigsBlXQcr-80" edge="1">
          <mxGeometry width="50" height="50" relative="1" as="geometry">
            <mxPoint x="420" y="-517.5" as="sourcePoint" />
            <mxPoint x="660" y="-497.5" as="targetPoint" />
          </mxGeometry>
        </mxCell>
        <mxCell id="xkGvFycIygTigsBlXQcr-90" value="" style="endArrow=none;html=1;rounded=0;exitX=1;exitY=0.5;exitDx=0;exitDy=0;" parent="1" source="xkGvFycIygTigsBlXQcr-86" target="xkGvFycIygTigsBlXQcr-84" edge="1">
          <mxGeometry width="50" height="50" relative="1" as="geometry">
            <mxPoint x="505" y="-615" as="sourcePoint" />
            <mxPoint x="750" y="-725" as="targetPoint" />
          </mxGeometry>
        </mxCell>
        <mxCell id="xkGvFycIygTigsBlXQcr-91" value="" style="endArrow=none;html=1;rounded=0;exitX=1;exitY=0.5;exitDx=0;exitDy=0;" parent="1" source="xkGvFycIygTigsBlXQcr-87" target="xkGvFycIygTigsBlXQcr-84" edge="1">
          <mxGeometry width="50" height="50" relative="1" as="geometry">
            <mxPoint x="670" y="-660" as="sourcePoint" />
            <mxPoint x="761" y="-677" as="targetPoint" />
          </mxGeometry>
        </mxCell>
        <mxCell id="xkGvFycIygTigsBlXQcr-92" value="" style="endArrow=open;endSize=12;dashed=1;html=1;rounded=0;exitX=0.5;exitY=1;exitDx=0;exitDy=0;entryX=0.5;entryY=0;entryDx=0;entryDy=0;" parent="1" source="xkGvFycIygTigsBlXQcr-43" target="xkGvFycIygTigsBlXQcr-45" edge="1">
          <mxGeometry x="-0.1854" y="26" width="160" relative="1" as="geometry">
            <mxPoint x="510" y="-461" as="sourcePoint" />
            <mxPoint x="506" y="-420" as="targetPoint" />
            <mxPoint as="offset" />
            <Array as="points" />
          </mxGeometry>
        </mxCell>
        <mxCell id="xkGvFycIygTigsBlXQcr-93" value="" style="endArrow=open;endSize=12;dashed=1;html=1;rounded=0;exitX=0.5;exitY=1;exitDx=0;exitDy=0;" parent="1" source="xkGvFycIygTigsBlXQcr-45" target="xkGvFycIygTigsBlXQcr-49" edge="1">
          <mxGeometry x="-0.1854" y="26" width="160" relative="1" as="geometry">
            <mxPoint x="455" y="-400" as="sourcePoint" />
            <mxPoint x="405" y="-370" as="targetPoint" />
            <mxPoint as="offset" />
            <Array as="points" />
          </mxGeometry>
        </mxCell>
        <mxCell id="xkGvFycIygTigsBlXQcr-94" value="" style="endArrow=open;endSize=12;dashed=1;html=1;rounded=0;exitX=0.5;exitY=1;exitDx=0;exitDy=0;entryX=0.5;entryY=0;entryDx=0;entryDy=0;" parent="1" source="xkGvFycIygTigsBlXQcr-49" target="xkGvFycIygTigsBlXQcr-48" edge="1">
          <mxGeometry x="-0.1854" y="26" width="160" relative="1" as="geometry">
            <mxPoint x="561" y="-341" as="sourcePoint" />
            <mxPoint x="540" y="-320" as="targetPoint" />
            <mxPoint as="offset" />
            <Array as="points" />
          </mxGeometry>
        </mxCell>
        <mxCell id="xkGvFycIygTigsBlXQcr-97" value="" style="endArrow=open;endSize=12;dashed=1;html=1;rounded=0;exitX=0;exitY=1;exitDx=0;exitDy=0;entryX=0.5;entryY=0;entryDx=0;entryDy=0;" parent="1" source="xkGvFycIygTigsBlXQcr-48" target="xkGvFycIygTigsBlXQcr-55" edge="1">
          <mxGeometry x="-0.1854" y="26" width="160" relative="1" as="geometry">
            <mxPoint x="244" y="-246" as="sourcePoint" />
            <mxPoint x="240" y="-205" as="targetPoint" />
            <mxPoint as="offset" />
            <Array as="points" />
          </mxGeometry>
        </mxCell>
        <mxCell id="xkGvFycIygTigsBlXQcr-98" value="" style="endArrow=open;endSize=12;dashed=1;html=1;rounded=0;exitX=1;exitY=0.5;exitDx=0;exitDy=0;" parent="1" source="xkGvFycIygTigsBlXQcr-55" target="xkGvFycIygTigsBlXQcr-62" edge="1">
          <mxGeometry x="-0.1854" y="26" width="160" relative="1" as="geometry">
            <mxPoint x="409" y="-211" as="sourcePoint" />
            <mxPoint x="317" y="-205" as="targetPoint" />
            <mxPoint as="offset" />
            <Array as="points" />
          </mxGeometry>
        </mxCell>
        <mxCell id="xkGvFycIygTigsBlXQcr-100" value="" style="endArrow=open;endSize=12;dashed=1;html=1;rounded=0;entryX=0.5;entryY=1;entryDx=0;entryDy=0;" parent="1" source="xkGvFycIygTigsBlXQcr-79" target="xkGvFycIygTigsBlXQcr-80" edge="1">
          <mxGeometry x="-0.1854" y="26" width="160" relative="1" as="geometry">
            <mxPoint x="625" y="-477.5" as="sourcePoint" />
            <mxPoint x="645" y="-512.5" as="targetPoint" />
            <mxPoint as="offset" />
            <Array as="points" />
          </mxGeometry>
        </mxCell>
        <mxCell id="xkGvFycIygTigsBlXQcr-102" value="" style="endArrow=open;endSize=12;dashed=1;html=1;rounded=0;entryX=0.384;entryY=1.047;entryDx=0;entryDy=0;exitX=0.5;exitY=0;exitDx=0;exitDy=0;entryPerimeter=0;" parent="1" source="xkGvFycIygTigsBlXQcr-80" target="xkGvFycIygTigsBlXQcr-86" edge="1">
          <mxGeometry x="-0.1854" y="26" width="160" relative="1" as="geometry">
            <mxPoint x="560" y="-528" as="sourcePoint" />
            <mxPoint x="547" y="-560" as="targetPoint" />
            <mxPoint as="offset" />
            <Array as="points" />
          </mxGeometry>
        </mxCell>
        <mxCell id="xkGvFycIygTigsBlXQcr-104" value="" style="endArrow=open;endSize=12;dashed=1;html=1;rounded=0;exitX=0.5;exitY=0;exitDx=0;exitDy=0;entryX=0.5;entryY=1;entryDx=0;entryDy=0;" parent="1" source="xkGvFycIygTigsBlXQcr-86" target="xkGvFycIygTigsBlXQcr-87" edge="1">
          <mxGeometry x="-0.1854" y="26" width="160" relative="1" as="geometry">
            <mxPoint x="554" y="-711" as="sourcePoint" />
            <mxPoint x="550" y="-670" as="targetPoint" />
            <mxPoint as="offset" />
            <Array as="points" />
          </mxGeometry>
        </mxCell>
        <mxCell id="xkGvFycIygTigsBlXQcr-105" value="" style="endArrow=none;html=1;rounded=0;exitX=1;exitY=0.5;exitDx=0;exitDy=0;entryX=0.5;entryY=0.5;entryDx=0;entryDy=0;entryPerimeter=0;" parent="1" source="xkGvFycIygTigsBlXQcr-80" target="xkGvFycIygTigsBlXQcr-5" edge="1">
          <mxGeometry width="50" height="50" relative="1" as="geometry">
            <mxPoint x="690" y="-452" as="sourcePoint" />
            <mxPoint x="785" y="-520" as="targetPoint" />
          </mxGeometry>
        </mxCell>
        <mxCell id="xkGvFycIygTigsBlXQcr-106" value="ImageCapture" style="ellipse;whiteSpace=wrap;html=1;align=center;fillColor=#3399FF;" parent="1" vertex="1">
          <mxGeometry x="299" y="-410" width="100" height="40" as="geometry" />
        </mxCell>
        <mxCell id="xkGvFycIygTigsBlXQcr-107" value="Active the camera" style="ellipse;whiteSpace=wrap;html=1;align=center;" parent="1" vertex="1">
          <mxGeometry x="170" y="-440" width="100" height="40" as="geometry" />
        </mxCell>
        <mxCell id="xkGvFycIygTigsBlXQcr-108" value="Stream imagery" style="ellipse;whiteSpace=wrap;html=1;align=center;" parent="1" vertex="1">
          <mxGeometry x="110" y="-380" width="100" height="40" as="geometry" />
        </mxCell>
        <mxCell id="xkGvFycIygTigsBlXQcr-110" value="Process imagery" style="ellipse;whiteSpace=wrap;html=1;align=center;" parent="1" vertex="1">
          <mxGeometry x="230" y="-330" width="100" height="40" as="geometry" />
        </mxCell>
        <mxCell id="xkGvFycIygTigsBlXQcr-111" value="Stop streaming" style="ellipse;whiteSpace=wrap;html=1;align=center;" parent="1" vertex="1">
          <mxGeometry x="100" y="-300" width="100" height="40" as="geometry" />
        </mxCell>
        <mxCell id="xkGvFycIygTigsBlXQcr-112" value="" style="endArrow=none;html=1;rounded=0;entryX=0.5;entryY=0;entryDx=0;entryDy=0;" parent="1" source="xkGvFycIygTigsBlXQcr-3" target="xkGvFycIygTigsBlXQcr-111" edge="1">
          <mxGeometry width="50" height="50" relative="1" as="geometry">
            <mxPoint x="-55" y="-349" as="sourcePoint" />
            <mxPoint x="355" y="-171" as="targetPoint" />
          </mxGeometry>
        </mxCell>
        <mxCell id="xkGvFycIygTigsBlXQcr-113" value="" style="endArrow=open;endSize=12;dashed=1;html=1;rounded=0;exitX=0.5;exitY=0;exitDx=0;exitDy=0;entryX=0.5;entryY=1;entryDx=0;entryDy=0;" parent="1" source="xkGvFycIygTigsBlXQcr-111" target="xkGvFycIygTigsBlXQcr-108" edge="1">
          <mxGeometry x="-0.1854" y="26" width="160" relative="1" as="geometry">
            <mxPoint x="164" y="-165" as="sourcePoint" />
            <mxPoint x="160" y="-124" as="targetPoint" />
            <mxPoint as="offset" />
            <Array as="points" />
          </mxGeometry>
        </mxCell>
        <mxCell id="xkGvFycIygTigsBlXQcr-114" value="&amp;lt;&amp;lt; extends &amp;gt;&amp;gt;" style="edgeLabel;html=1;align=center;verticalAlign=middle;resizable=0;points=[];rotation=15;" parent="xkGvFycIygTigsBlXQcr-113" vertex="1" connectable="0">
          <mxGeometry x="0.0071" y="-1" relative="1" as="geometry">
            <mxPoint x="-1" y="-4" as="offset" />
          </mxGeometry>
        </mxCell>
        <mxCell id="xkGvFycIygTigsBlXQcr-115" value="" style="endArrow=open;endSize=12;dashed=1;html=1;rounded=0;exitX=0;exitY=0.5;exitDx=0;exitDy=0;entryX=1;entryY=0.5;entryDx=0;entryDy=0;" parent="1" source="xkGvFycIygTigsBlXQcr-14" target="xkGvFycIygTigsBlXQcr-106" edge="1">
          <mxGeometry x="-0.1854" y="26" width="160" relative="1" as="geometry">
            <mxPoint x="359" y="-410" as="sourcePoint" />
            <mxPoint x="445" y="-410" as="targetPoint" />
            <mxPoint as="offset" />
            <Array as="points" />
          </mxGeometry>
        </mxCell>
        <mxCell id="xkGvFycIygTigsBlXQcr-183" value="&amp;lt;&amp;lt; include &amp;gt;&amp;gt;" style="edgeLabel;html=1;align=center;verticalAlign=middle;resizable=0;points=[];" parent="xkGvFycIygTigsBlXQcr-115" vertex="1" connectable="0">
          <mxGeometry x="0.7112" y="-1" relative="1" as="geometry">
            <mxPoint as="offset" />
          </mxGeometry>
        </mxCell>
        <mxCell id="xkGvFycIygTigsBlXQcr-116" value="" style="endArrow=open;endSize=12;dashed=1;html=1;rounded=0;exitX=0;exitY=0.5;exitDx=0;exitDy=0;entryX=1;entryY=0.5;entryDx=0;entryDy=0;" parent="1" source="xkGvFycIygTigsBlXQcr-106" target="xkGvFycIygTigsBlXQcr-107" edge="1">
          <mxGeometry x="-0.1854" y="26" width="160" relative="1" as="geometry">
            <mxPoint x="310" y="-440" as="sourcePoint" />
            <mxPoint x="260" y="-410" as="targetPoint" />
            <mxPoint as="offset" />
            <Array as="points" />
          </mxGeometry>
        </mxCell>
        <mxCell id="xkGvFycIygTigsBlXQcr-117" value="" style="endArrow=open;endSize=12;dashed=1;html=1;rounded=0;exitX=0.5;exitY=1;exitDx=0;exitDy=0;entryX=0.5;entryY=0;entryDx=0;entryDy=0;" parent="1" source="xkGvFycIygTigsBlXQcr-107" target="xkGvFycIygTigsBlXQcr-108" edge="1">
          <mxGeometry x="-0.1854" y="26" width="160" relative="1" as="geometry">
            <mxPoint x="180" y="-410" as="sourcePoint" />
            <mxPoint x="130" y="-380" as="targetPoint" />
            <mxPoint as="offset" />
            <Array as="points" />
          </mxGeometry>
        </mxCell>
        <mxCell id="xkGvFycIygTigsBlXQcr-118" value="" style="endArrow=open;endSize=12;dashed=1;html=1;rounded=0;exitX=0.5;exitY=1;exitDx=0;exitDy=0;entryX=0;entryY=0.5;entryDx=0;entryDy=0;" parent="1" source="xkGvFycIygTigsBlXQcr-108" target="xkGvFycIygTigsBlXQcr-110" edge="1">
          <mxGeometry x="-0.1854" y="26" width="160" relative="1" as="geometry">
            <mxPoint x="230" y="-320" as="sourcePoint" />
            <mxPoint x="224.83221847965365" y="-305.7832372577327" as="targetPoint" />
            <mxPoint as="offset" />
            <Array as="points" />
          </mxGeometry>
        </mxCell>
        <mxCell id="xkGvFycIygTigsBlXQcr-119" value="" style="html=1;verticalAlign=bottom;endArrow=block;curved=0;rounded=0;exitX=1;exitY=0;exitDx=0;exitDy=0;entryX=0.25;entryY=0.1;entryDx=0;entryDy=0;entryPerimeter=0;" parent="1" source="xkGvFycIygTigsBlXQcr-110" target="xkGvFycIygTigsBlXQcr-7" edge="1">
          <mxGeometry width="80" relative="1" as="geometry">
            <mxPoint x="260" y="-285.53" as="sourcePoint" />
            <mxPoint x="730" y="-380" as="targetPoint" />
          </mxGeometry>
        </mxCell>
        <mxCell id="xkGvFycIygTigsBlXQcr-122" value="" style="endArrow=none;html=1;rounded=0;exitX=1;exitY=0;exitDx=0;exitDy=0;entryX=0.5;entryY=0.5;entryDx=0;entryDy=0;entryPerimeter=0;" parent="1" source="xkGvFycIygTigsBlXQcr-106" target="xkGvFycIygTigsBlXQcr-5" edge="1">
          <mxGeometry width="50" height="50" relative="1" as="geometry">
            <mxPoint x="269" y="-522.5" as="sourcePoint" />
            <mxPoint x="540" y="-532.5" as="targetPoint" />
          </mxGeometry>
        </mxCell>
        <mxCell id="xkGvFycIygTigsBlXQcr-123" value="" style="endArrow=none;html=1;rounded=0;exitX=0.5;exitY=0;exitDx=0;exitDy=0;entryX=0.5;entryY=0.5;entryDx=0;entryDy=0;entryPerimeter=0;" parent="1" source="xkGvFycIygTigsBlXQcr-107" target="xkGvFycIygTigsBlXQcr-5" edge="1">
          <mxGeometry width="50" height="50" relative="1" as="geometry">
            <mxPoint x="570" y="-440" as="sourcePoint" />
            <mxPoint x="841" y="-450" as="targetPoint" />
          </mxGeometry>
        </mxCell>
        <mxCell id="xkGvFycIygTigsBlXQcr-126" value="ActiveTracking" style="ellipse;whiteSpace=wrap;html=1;align=center;fillColor=#3399FF;" parent="1" vertex="1">
          <mxGeometry x="570" y="-740" width="100" height="40" as="geometry" />
        </mxCell>
        <mxCell id="xkGvFycIygTigsBlXQcr-127" value="" style="endArrow=open;endSize=12;dashed=1;html=1;rounded=0;exitX=0.5;exitY=0;exitDx=0;exitDy=0;entryX=0.5;entryY=1;entryDx=0;entryDy=0;" parent="1" source="xkGvFycIygTigsBlXQcr-106" target="xkGvFycIygTigsBlXQcr-126" edge="1">
          <mxGeometry x="-0.1854" y="26" width="160" relative="1" as="geometry">
            <mxPoint x="280" y="-491" as="sourcePoint" />
            <mxPoint x="408" y="-600" as="targetPoint" />
            <mxPoint as="offset" />
          </mxGeometry>
        </mxCell>
        <mxCell id="xkGvFycIygTigsBlXQcr-128" value="&amp;lt;&amp;lt; include &amp;gt;&amp;gt;" style="edgeLabel;html=1;align=center;verticalAlign=middle;resizable=0;points=[];rotation=-45;" parent="xkGvFycIygTigsBlXQcr-127" vertex="1" connectable="0">
          <mxGeometry x="0.0286" y="-2" relative="1" as="geometry">
            <mxPoint x="-31" y="30" as="offset" />
          </mxGeometry>
        </mxCell>
        <mxCell id="xkGvFycIygTigsBlXQcr-129" value="" style="endArrow=none;html=1;rounded=0;exitX=1;exitY=1;exitDx=0;exitDy=0;entryX=0.25;entryY=0.1;entryDx=0;entryDy=0;entryPerimeter=0;" parent="1" source="xkGvFycIygTigsBlXQcr-126" target="xkGvFycIygTigsBlXQcr-5" edge="1">
          <mxGeometry width="50" height="50" relative="1" as="geometry">
            <mxPoint x="640" y="-565" as="sourcePoint" />
            <mxPoint x="825" y="-655" as="targetPoint" />
          </mxGeometry>
        </mxCell>
        <mxCell id="xkGvFycIygTigsBlXQcr-130" value="trackingPosition" style="ellipse;whiteSpace=wrap;html=1;align=center;" parent="1" vertex="1">
          <mxGeometry x="580" y="-850" width="100" height="40" as="geometry" />
        </mxCell>
        <mxCell id="xkGvFycIygTigsBlXQcr-131" value="" style="endArrow=open;endSize=12;dashed=1;html=1;rounded=0;entryX=0.5;entryY=1;entryDx=0;entryDy=0;exitX=0.5;exitY=0;exitDx=0;exitDy=0;" parent="1" source="xkGvFycIygTigsBlXQcr-126" target="xkGvFycIygTigsBlXQcr-130" edge="1">
          <mxGeometry x="-0.1854" y="26" width="160" relative="1" as="geometry">
            <mxPoint x="640" y="-770" as="sourcePoint" />
            <mxPoint x="670" y="-792" as="targetPoint" />
            <mxPoint as="offset" />
          </mxGeometry>
        </mxCell>
        <mxCell id="xkGvFycIygTigsBlXQcr-184" value="&amp;lt;&amp;lt; include &amp;gt;&amp;gt;" style="edgeLabel;html=1;align=center;verticalAlign=middle;resizable=0;points=[];" parent="xkGvFycIygTigsBlXQcr-131" vertex="1" connectable="0">
          <mxGeometry x="0.1135" y="1" relative="1" as="geometry">
            <mxPoint as="offset" />
          </mxGeometry>
        </mxCell>
        <mxCell id="xkGvFycIygTigsBlXQcr-132" value="Tag the victim" style="ellipse;whiteSpace=wrap;html=1;align=center;" parent="1" vertex="1">
          <mxGeometry x="445" y="-800" width="80" height="30" as="geometry" />
        </mxCell>
        <mxCell id="xkGvFycIygTigsBlXQcr-134" value="" style="endArrow=open;endSize=12;dashed=1;html=1;rounded=0;entryX=1;entryY=0;entryDx=0;entryDy=0;exitX=0;exitY=0.5;exitDx=0;exitDy=0;" parent="1" source="xkGvFycIygTigsBlXQcr-130" target="xkGvFycIygTigsBlXQcr-132" edge="1">
          <mxGeometry x="-0.1854" y="26" width="160" relative="1" as="geometry">
            <mxPoint x="540" y="-840" as="sourcePoint" />
            <mxPoint x="560" y="-880" as="targetPoint" />
            <mxPoint as="offset" />
          </mxGeometry>
        </mxCell>
        <mxCell id="xkGvFycIygTigsBlXQcr-136" value="" style="endArrow=none;html=1;rounded=0;exitX=0.5;exitY=1;exitDx=0;exitDy=0;entryX=0.25;entryY=0.1;entryDx=0;entryDy=0;entryPerimeter=0;" parent="1" source="xkGvFycIygTigsBlXQcr-132" target="xkGvFycIygTigsBlXQcr-5" edge="1">
          <mxGeometry width="50" height="50" relative="1" as="geometry">
            <mxPoint x="665" y="-716" as="sourcePoint" />
            <mxPoint x="795" y="-540" as="targetPoint" />
          </mxGeometry>
        </mxCell>
        <mxCell id="xkGvFycIygTigsBlXQcr-139" value="Stop tracking" style="ellipse;whiteSpace=wrap;html=1;align=center;" parent="1" vertex="1">
          <mxGeometry x="150" y="-690" width="105" height="50" as="geometry" />
        </mxCell>
        <mxCell id="xkGvFycIygTigsBlXQcr-140" value="Mission &lt;br&gt;Commander" style="shape=umlActor;verticalLabelPosition=bottom;verticalAlign=top;html=1;" parent="1" vertex="1">
          <mxGeometry x="40" y="-790" width="30" height="60" as="geometry" />
        </mxCell>
        <mxCell id="xkGvFycIygTigsBlXQcr-141" value="" style="endArrow=none;html=1;rounded=0;exitX=0.5;exitY=0.5;exitDx=0;exitDy=0;exitPerimeter=0;entryX=0;entryY=0;entryDx=0;entryDy=0;" parent="1" source="xkGvFycIygTigsBlXQcr-140" target="xkGvFycIygTigsBlXQcr-139" edge="1">
          <mxGeometry width="50" height="50" relative="1" as="geometry">
            <mxPoint x="97.5" y="-750" as="sourcePoint" />
            <mxPoint x="282.5" y="-840" as="targetPoint" />
          </mxGeometry>
        </mxCell>
        <mxCell id="xkGvFycIygTigsBlXQcr-142" value="" style="endArrow=open;endSize=12;dashed=1;html=1;rounded=0;exitX=1;exitY=0.5;exitDx=0;exitDy=0;entryX=0.5;entryY=1;entryDx=0;entryDy=0;" parent="1" source="xkGvFycIygTigsBlXQcr-139" target="xkGvFycIygTigsBlXQcr-144" edge="1">
          <mxGeometry x="-0.1854" y="26" width="160" relative="1" as="geometry">
            <mxPoint x="312" y="-740" as="sourcePoint" />
            <mxPoint x="280" y="-730" as="targetPoint" />
            <mxPoint as="offset" />
          </mxGeometry>
        </mxCell>
        <mxCell id="xkGvFycIygTigsBlXQcr-143" value="&amp;lt;&amp;lt; extend &amp;gt;&amp;gt;" style="edgeLabel;html=1;align=center;verticalAlign=middle;resizable=0;points=[];rotation=-30;" parent="xkGvFycIygTigsBlXQcr-142" vertex="1" connectable="0">
          <mxGeometry x="0.0286" y="-2" relative="1" as="geometry">
            <mxPoint x="-11" y="-8" as="offset" />
          </mxGeometry>
        </mxCell>
        <mxCell id="xkGvFycIygTigsBlXQcr-144" value="Track the victim" style="ellipse;whiteSpace=wrap;html=1;align=center;" parent="1" vertex="1">
          <mxGeometry x="301.5" y="-760" width="105" height="50" as="geometry" />
        </mxCell>
        <mxCell id="xkGvFycIygTigsBlXQcr-145" value="" style="endArrow=open;endSize=12;dashed=1;html=1;rounded=0;exitX=0;exitY=0.5;exitDx=0;exitDy=0;" parent="1" source="xkGvFycIygTigsBlXQcr-132" target="xkGvFycIygTigsBlXQcr-144" edge="1">
          <mxGeometry x="-0.1854" y="26" width="160" relative="1" as="geometry">
            <mxPoint x="425" y="-830" as="sourcePoint" />
            <mxPoint x="375" y="-803" as="targetPoint" />
            <mxPoint as="offset" />
          </mxGeometry>
        </mxCell>
        <mxCell id="xkGvFycIygTigsBlXQcr-146" value="VictimConfirm" style="ellipse;whiteSpace=wrap;html=1;align=center;fillColor=#3399FF;" parent="1" vertex="1">
          <mxGeometry x="326.5" y="-830" width="80" height="40" as="geometry" />
        </mxCell>
        <mxCell id="xkGvFycIygTigsBlXQcr-147" value="" style="endArrow=open;endSize=12;dashed=1;html=1;rounded=0;exitX=0;exitY=0.5;exitDx=0;exitDy=0;entryX=1;entryY=0.5;entryDx=0;entryDy=0;" parent="1" source="xkGvFycIygTigsBlXQcr-126" target="xkGvFycIygTigsBlXQcr-146" edge="1">
          <mxGeometry x="-0.1854" y="26" width="160" relative="1" as="geometry">
            <mxPoint x="390" y="-845.5" as="sourcePoint" />
            <mxPoint x="337" y="-814.5" as="targetPoint" />
            <mxPoint as="offset" />
          </mxGeometry>
        </mxCell>
        <mxCell id="xkGvFycIygTigsBlXQcr-187" value="&amp;lt;&amp;lt; include &amp;gt;&amp;gt;" style="edgeLabel;html=1;align=center;verticalAlign=middle;resizable=0;points=[];" parent="xkGvFycIygTigsBlXQcr-147" vertex="1" connectable="0">
          <mxGeometry x="-0.2067" relative="1" as="geometry">
            <mxPoint as="offset" />
          </mxGeometry>
        </mxCell>
        <mxCell id="xkGvFycIygTigsBlXQcr-148" value="" style="endArrow=none;html=1;rounded=0;exitX=1;exitY=1;exitDx=0;exitDy=0;entryX=0.5;entryY=0;entryDx=0;entryDy=0;entryPerimeter=0;" parent="1" source="xkGvFycIygTigsBlXQcr-149" target="xkGvFycIygTigsBlXQcr-7" edge="1">
          <mxGeometry width="50" height="50" relative="1" as="geometry">
            <mxPoint x="700" y="-501" as="sourcePoint" />
            <mxPoint x="820" y="-424" as="targetPoint" />
          </mxGeometry>
        </mxCell>
        <mxCell id="xkGvFycIygTigsBlXQcr-149" value="Raise the alert" style="ellipse;whiteSpace=wrap;html=1;align=center;" parent="1" vertex="1">
          <mxGeometry x="450" y="-860" width="80" height="30" as="geometry" />
        </mxCell>
        <mxCell id="xkGvFycIygTigsBlXQcr-153" value="Confirm the victim" style="ellipse;whiteSpace=wrap;html=1;align=center;" parent="1" vertex="1">
          <mxGeometry x="299" y="-880" width="80" height="30" as="geometry" />
        </mxCell>
        <mxCell id="xkGvFycIygTigsBlXQcr-155" value="" style="endArrow=none;html=1;rounded=0;exitX=0.5;exitY=0;exitDx=0;exitDy=0;exitPerimeter=0;entryX=0;entryY=1;entryDx=0;entryDy=0;" parent="1" source="xkGvFycIygTigsBlXQcr-140" target="xkGvFycIygTigsBlXQcr-153" edge="1">
          <mxGeometry width="50" height="50" relative="1" as="geometry">
            <mxPoint x="70" y="-770" as="sourcePoint" />
            <mxPoint x="255" y="-860" as="targetPoint" />
          </mxGeometry>
        </mxCell>
        <mxCell id="xkGvFycIygTigsBlXQcr-156" value="" style="endArrow=open;endSize=12;dashed=1;html=1;rounded=0;exitX=0;exitY=0.5;exitDx=0;exitDy=0;entryX=1;entryY=0.5;entryDx=0;entryDy=0;" parent="1" source="xkGvFycIygTigsBlXQcr-149" target="xkGvFycIygTigsBlXQcr-153" edge="1">
          <mxGeometry x="-0.1854" y="26" width="160" relative="1" as="geometry">
            <mxPoint x="355.5" y="-950" as="sourcePoint" />
            <mxPoint x="478.5" y="-950" as="targetPoint" />
            <mxPoint as="offset" />
          </mxGeometry>
        </mxCell>
        <mxCell id="xkGvFycIygTigsBlXQcr-157" value="" style="endArrow=open;endSize=12;dashed=1;html=1;rounded=0;exitX=1;exitY=0;exitDx=0;exitDy=0;entryX=0.5;entryY=1;entryDx=0;entryDy=0;" parent="1" source="xkGvFycIygTigsBlXQcr-146" target="xkGvFycIygTigsBlXQcr-149" edge="1">
          <mxGeometry x="-0.1854" y="26" width="160" relative="1" as="geometry">
            <mxPoint x="387" y="-810" as="sourcePoint" />
            <mxPoint x="510" y="-810" as="targetPoint" />
            <mxPoint as="offset" />
          </mxGeometry>
        </mxCell>
        <mxCell id="xkGvFycIygTigsBlXQcr-159" value="ItemDelivery" style="ellipse;whiteSpace=wrap;html=1;align=center;fillColor=#3399FF;" parent="1" vertex="1">
          <mxGeometry x="600" y="-940" width="80" height="40" as="geometry" />
        </mxCell>
        <mxCell id="xkGvFycIygTigsBlXQcr-160" value="EndFlight" style="ellipse;whiteSpace=wrap;html=1;align=center;fillColor=#3399FF;" parent="1" vertex="1">
          <mxGeometry x="120" y="-890" width="80" height="40" as="geometry" />
        </mxCell>
        <mxCell id="xkGvFycIygTigsBlXQcr-162" value="" style="endArrow=none;html=1;rounded=0;exitX=1;exitY=0.3333333333333333;exitDx=0;exitDy=0;exitPerimeter=0;entryX=0;entryY=1;entryDx=0;entryDy=0;" parent="1" source="xkGvFycIygTigsBlXQcr-140" target="xkGvFycIygTigsBlXQcr-160" edge="1">
          <mxGeometry width="50" height="50" relative="1" as="geometry">
            <mxPoint x="70" y="-787" as="sourcePoint" />
            <mxPoint x="190" y="-710" as="targetPoint" />
          </mxGeometry>
        </mxCell>
        <mxCell id="xkGvFycIygTigsBlXQcr-163" value="" style="endArrow=open;endSize=12;dashed=1;html=1;rounded=0;exitX=0;exitY=0.5;exitDx=0;exitDy=0;entryX=1;entryY=0.5;entryDx=0;entryDy=0;" parent="1" source="xkGvFycIygTigsBlXQcr-159" target="xkGvFycIygTigsBlXQcr-160" edge="1">
          <mxGeometry x="-0.1854" y="26" width="160" relative="1" as="geometry">
            <mxPoint x="301.5" y="-930" as="sourcePoint" />
            <mxPoint x="230.5" y="-950" as="targetPoint" />
            <mxPoint as="offset" />
          </mxGeometry>
        </mxCell>
        <mxCell id="xkGvFycIygTigsBlXQcr-178" value="&amp;lt;&amp;lt; include &amp;gt;&amp;gt;" style="edgeLabel;html=1;align=center;verticalAlign=middle;resizable=0;points=[];rotation=-15;" parent="xkGvFycIygTigsBlXQcr-163" vertex="1" connectable="0">
          <mxGeometry x="-0.3889" y="1" relative="1" as="geometry">
            <mxPoint as="offset" />
          </mxGeometry>
        </mxCell>
        <mxCell id="xkGvFycIygTigsBlXQcr-164" value="" style="endArrow=open;endSize=12;dashed=1;html=1;rounded=0;exitX=0.5;exitY=0;exitDx=0;exitDy=0;entryX=0;entryY=1;entryDx=0;entryDy=0;" parent="1" source="xkGvFycIygTigsBlXQcr-146" target="xkGvFycIygTigsBlXQcr-159" edge="1">
          <mxGeometry x="-0.1854" y="26" width="160" relative="1" as="geometry">
            <mxPoint x="485.5" y="-920" as="sourcePoint" />
            <mxPoint x="414.5" y="-940" as="targetPoint" />
            <mxPoint as="offset" />
          </mxGeometry>
        </mxCell>
        <mxCell id="xkGvFycIygTigsBlXQcr-185" value="&amp;lt;&amp;lt; include &amp;gt;&amp;gt;" style="edgeLabel;html=1;align=center;verticalAlign=middle;resizable=0;points=[];" parent="xkGvFycIygTigsBlXQcr-164" vertex="1" connectable="0">
          <mxGeometry x="0.5058" y="-2" relative="1" as="geometry">
            <mxPoint as="offset" />
          </mxGeometry>
        </mxCell>
        <mxCell id="xkGvFycIygTigsBlXQcr-165" value="" style="endArrow=none;html=1;rounded=0;exitX=1;exitY=0.5;exitDx=0;exitDy=0;entryX=0.5;entryY=0;entryDx=0;entryDy=0;entryPerimeter=0;" parent="1" source="xkGvFycIygTigsBlXQcr-159" target="xkGvFycIygTigsBlXQcr-5" edge="1">
          <mxGeometry width="50" height="50" relative="1" as="geometry">
            <mxPoint x="640" y="-800" as="sourcePoint" />
            <mxPoint x="778" y="-544" as="targetPoint" />
          </mxGeometry>
        </mxCell>
        <mxCell id="xkGvFycIygTigsBlXQcr-166" value="Stream video" style="ellipse;whiteSpace=wrap;html=1;align=center;" parent="1" vertex="1">
          <mxGeometry x="510" y="-1090" width="80" height="30" as="geometry" />
        </mxCell>
        <mxCell id="xkGvFycIygTigsBlXQcr-167" value="Position at drop point" style="ellipse;whiteSpace=wrap;html=1;align=center;" parent="1" vertex="1">
          <mxGeometry x="470" y="-1020" width="80" height="30" as="geometry" />
        </mxCell>
        <mxCell id="xkGvFycIygTigsBlXQcr-168" value="Permission for the drop" style="ellipse;whiteSpace=wrap;html=1;align=center;" parent="1" vertex="1">
          <mxGeometry x="390" y="-950" width="90" height="40" as="geometry" />
        </mxCell>
        <mxCell id="xkGvFycIygTigsBlXQcr-170" value="" style="endArrow=open;endSize=12;dashed=1;html=1;rounded=0;exitX=0.5;exitY=0;exitDx=0;exitDy=0;entryX=1;entryY=0.5;entryDx=0;entryDy=0;" parent="1" source="xkGvFycIygTigsBlXQcr-159" target="xkGvFycIygTigsBlXQcr-166" edge="1">
          <mxGeometry x="-0.1854" y="26" width="160" relative="1" as="geometry">
            <mxPoint x="655" y="-1060" as="sourcePoint" />
            <mxPoint x="255" y="-1010" as="targetPoint" />
            <mxPoint as="offset" />
          </mxGeometry>
        </mxCell>
        <mxCell id="xkGvFycIygTigsBlXQcr-186" value="&amp;lt;&amp;lt; include &amp;gt;&amp;gt;" style="edgeLabel;html=1;align=center;verticalAlign=middle;resizable=0;points=[];" parent="xkGvFycIygTigsBlXQcr-170" vertex="1" connectable="0">
          <mxGeometry x="0.1818" y="-1" relative="1" as="geometry">
            <mxPoint as="offset" />
          </mxGeometry>
        </mxCell>
        <mxCell id="xkGvFycIygTigsBlXQcr-173" value="" style="endArrow=open;endSize=12;dashed=1;html=1;rounded=0;exitX=0.5;exitY=1;exitDx=0;exitDy=0;entryX=1;entryY=0;entryDx=0;entryDy=0;" parent="1" source="xkGvFycIygTigsBlXQcr-166" target="xkGvFycIygTigsBlXQcr-167" edge="1">
          <mxGeometry x="-0.1854" y="26" width="160" relative="1" as="geometry">
            <mxPoint x="409" y="-1065" as="sourcePoint" />
            <mxPoint x="359" y="-1200" as="targetPoint" />
            <mxPoint as="offset" />
          </mxGeometry>
        </mxCell>
        <mxCell id="xkGvFycIygTigsBlXQcr-174" value="" style="endArrow=open;endSize=12;dashed=1;html=1;rounded=0;exitX=0.5;exitY=1;exitDx=0;exitDy=0;" parent="1" source="xkGvFycIygTigsBlXQcr-167" target="xkGvFycIygTigsBlXQcr-168" edge="1">
          <mxGeometry x="-0.1854" y="26" width="160" relative="1" as="geometry">
            <mxPoint x="470" y="-990" as="sourcePoint" />
            <mxPoint x="430" y="-950" as="targetPoint" />
            <mxPoint as="offset" />
          </mxGeometry>
        </mxCell>
        <mxCell id="xkGvFycIygTigsBlXQcr-175" value="" style="endArrow=none;html=1;rounded=0;exitX=1;exitY=0.3333333333333333;exitDx=0;exitDy=0;exitPerimeter=0;entryX=0;entryY=0.5;entryDx=0;entryDy=0;" parent="1" source="xkGvFycIygTigsBlXQcr-140" target="xkGvFycIygTigsBlXQcr-168" edge="1">
          <mxGeometry width="50" height="50" relative="1" as="geometry">
            <mxPoint x="70" y="-760" as="sourcePoint" />
            <mxPoint x="142" y="-846" as="targetPoint" />
          </mxGeometry>
        </mxCell>
        <mxCell id="xkGvFycIygTigsBlXQcr-176" value="Drop the item" style="ellipse;whiteSpace=wrap;html=1;align=center;" parent="1" vertex="1">
          <mxGeometry x="365" y="-1050" width="80" height="30" as="geometry" />
        </mxCell>
        <mxCell id="xkGvFycIygTigsBlXQcr-177" value="" style="endArrow=open;endSize=12;dashed=1;html=1;rounded=0;exitX=0;exitY=0;exitDx=0;exitDy=0;entryX=0.5;entryY=1;entryDx=0;entryDy=0;" parent="1" source="xkGvFycIygTigsBlXQcr-168" target="xkGvFycIygTigsBlXQcr-176" edge="1">
          <mxGeometry x="-0.1854" y="26" width="160" relative="1" as="geometry">
            <mxPoint x="379" y="-1080" as="sourcePoint" />
            <mxPoint x="318" y="-1038" as="targetPoint" />
            <mxPoint as="offset" />
          </mxGeometry>
        </mxCell>
        <mxCell id="mlFx-4Buv14Xa408He2_-1" value="" style="endArrow=none;html=1;rounded=0;" edge="1" parent="1">
          <mxGeometry width="50" height="50" relative="1" as="geometry">
            <mxPoint x="700" y="-1100" as="sourcePoint" />
            <mxPoint x="100" y="-1100" as="targetPoint" />
          </mxGeometry>
        </mxCell>
        <mxCell id="mlFx-4Buv14Xa408He2_-2" value="" style="endArrow=none;html=1;rounded=0;" edge="1" parent="1">
          <mxGeometry width="50" height="50" relative="1" as="geometry">
            <mxPoint x="700" y="-100" as="sourcePoint" />
            <mxPoint x="100" y="-100" as="targetPoint" />
          </mxGeometry>
        </mxCell>
        <mxCell id="mlFx-4Buv14Xa408He2_-6" value="" style="endArrow=none;html=1;rounded=0;entryX=0;entryY=0.5;entryDx=0;entryDy=0;" edge="1" parent="1" target="xkGvFycIygTigsBlXQcr-3">
          <mxGeometry width="50" height="50" relative="1" as="geometry">
            <mxPoint x="20" y="-470" as="sourcePoint" />
            <mxPoint x="490" y="-490" as="targetPoint" />
          </mxGeometry>
        </mxCell>
        <mxCell id="xkGvFycIygTigsBlXQcr-3" value="Drone &lt;br&gt;Commander" style="shape=umlActor;verticalLabelPosition=bottom;verticalAlign=top;html=1;" parent="1" vertex="1">
          <mxGeometry x="20" y="-500" width="30" height="60" as="geometry" />
        </mxCell>
      </root>
    </mxGraphModel>
  </diagram>
</mxfile>
